<?xml version="1.0" encoding="UTF-8" standalone="no"?>
<!DOCTYPE svg PUBLIC "-//W3C//DTD SVG 1.1//EN" "http://www.w3.org/Graphics/SVG/1.1/DTD/svg11.dtd">
<svg width="100%" height="100%" viewBox="0 0 4961 4961" version="1.1" xmlns="http://www.w3.org/2000/svg" xmlns:xlink="http://www.w3.org/1999/xlink" xml:space="preserve" xmlns:serif="http://www.serif.com/" style="fill-rule:evenodd;clip-rule:evenodd;stroke-linejoin:round;stroke-miterlimit:2;">
    <g transform="matrix(2.79954,0,0,2.79954,3138.51,-156.071)">
        <g transform="matrix(0.361558,0,0,0.464223,-17.6462,-140.451)">
            <rect x="214.974" y="422.084" width="1633.35" height="1272.13" style="fill:rgb(71,46,191);"/>
        </g>
        <g transform="matrix(2.49634,0,0,2.49716,-457.715,-693.508)">
            <path d="M332.95,524.324C362.908,521.794 388.217,510.352 407.885,487.075C425.997,465.711 434.864,438.018 432.529,410.106C430.067,381.111 417.388,355.969 394.928,337.23C373.359,319.102 345.405,310.412 317.36,313.117C289.306,315.658 263.435,329.315 245.511,351.044C227.516,372.959 219.026,401.156 221.927,429.362C224.813,457.395 238.712,483.135 260.567,500.926C277.449,514.621 298.145,522.765 319.823,524.252C320.024,524.266 326.478,524.667 326.678,524.679L332.95,524.324M313.83,327.546C364.281,320.159 411.111,355.225 418.223,405.715C425.335,456.205 390.013,502.844 339.485,509.68C306.181,514.186 274.613,500.26 255.101,475.717C245.239,463.311 238.456,448.193 236.087,431.371C229.029,381.269 263.768,334.877 313.83,327.546Z" style="fill:rgb(254,254,254);"/>
        </g>
        <g transform="matrix(2.49634,0,0,2.49716,-457.715,-693.508)">
            <path d="M322.25,337.518C366.904,334.82 405.322,368.763 408.147,413.41C410.972,458.056 377.139,496.571 332.5,499.523C287.682,502.486 248.979,468.487 246.142,423.66C243.306,378.834 277.415,340.227 322.25,337.518ZM321.409,351.516C284.273,354.692 256.798,387.458 260.145,424.58C263.491,461.701 296.384,489.025 333.489,485.507C370.354,482.012 397.462,449.38 394.137,412.5C390.812,375.619 358.305,348.361 321.409,351.516Z" style="fill:rgb(254,254,254);"/>
        </g>
        <g transform="matrix(2.49634,0,0,2.49716,-457.715,-693.508)">
            <path d="M320.229,362.507C351.094,358.692 379.234,380.555 383.166,411.406C387.098,442.257 365.343,470.479 334.507,474.529C303.505,478.6 275.097,456.702 271.144,425.685C267.19,394.667 289.196,366.343 320.229,362.507ZM320.356,376.513C297.012,380.289 281.217,402.363 285.177,425.676C289.136,448.989 311.334,464.61 334.615,460.467C357.638,456.37 373.049,434.471 369.133,411.416C365.217,388.361 343.441,372.779 320.356,376.513Z" style="fill:rgb(254,254,254);"/>
        </g>
        <g transform="matrix(2.49634,0,0,2.49716,-457.715,-693.508)">
            <path d="M320.64,387.481C337.841,383.874 354.7,394.926 358.252,412.138C361.805,429.35 350.699,446.173 333.476,449.671C316.33,453.153 299.599,442.108 296.062,424.973C292.526,407.839 303.517,391.072 320.64,387.481ZM322.072,401.481C312.609,404.307 307.259,414.299 310.152,423.742C313.044,433.184 323.074,438.464 332.496,435.505C341.824,432.575 347.041,422.667 344.177,413.318C341.313,403.969 331.441,398.683 322.072,401.481Z" style="fill:rgb(254,254,254);"/>
        </g>
        <g transform="matrix(2.49634,0,0,2.49716,-457.715,-693.508)">
            <path d="M324.234,411.566C328.005,409.965 332.364,411.657 334.068,415.382C335.771,419.107 334.199,423.511 330.522,425.315C328.052,426.527 325.119,426.303 322.863,424.729C320.607,423.154 319.383,420.479 319.669,417.743C319.954,415.007 321.702,412.641 324.234,411.566Z" style="fill:rgb(254,254,254);fill-rule:nonzero;"/>
        </g>
    </g>
    <g transform="matrix(5.84396,0,0,5.85014,-7487.32,-3833.99)">
        <g transform="matrix(0.957018,0,0,0.951827,85.4543,51.9408)">
            <rect x="1840.7" y="931.157" width="295.608" height="296.809" style="fill:rgb(71,46,191);"/>
        </g>
        <g transform="matrix(1,0,0,1,-3.84282,0.532582)">
            <path d="M1850.88,937.708L1957.83,937.708L1850.88,1044.72L1850.88,937.708ZM1900.67,960.59L1874.38,960.59L1874.38,986.678L1900.67,960.59Z" style="fill:white;"/>
        </g>
        <g transform="matrix(6.12323e-17,-1,1,6.12323e-17,909.516,3071.93)">
            <path d="M1851.17,937.523L1957.83,937.523L1851.17,1044.72L1851.17,937.523ZM1900.88,961.124L1874.6,961.124L1874.6,987.212L1900.88,961.124Z" style="fill:white;"/>
        </g>
        <g transform="matrix(-1,-1.22465e-16,1.22465e-16,-1,3980.79,2158.76)">
            <path d="M1850.85,937.917L1957.83,938.01L1850.85,1044.72L1850.85,937.917ZM1900.86,961.53L1874.57,961.53L1874.57,987.618L1900.86,961.53Z" style="fill:white;"/>
        </g>
        <g transform="matrix(6.12323e-17,1,-1,6.12323e-17,3067.49,-913.358)">
            <path d="M1851.6,937.553L1957.83,937.553L1851.6,1044.72L1851.6,937.553ZM1900.67,961.369L1874.38,961.369L1874.38,987.457L1900.67,961.369Z" style="fill:white;"/>
        </g>
        <g transform="matrix(5.21583,0,0,1.03178,-8406.33,-38.7583)">
            <path d="M1992.94,946.911L2020.06,1083.88L1992.94,1220.72L1965.82,1083.88L1992.94,946.911ZM1992.93,979.526L1972.55,1082.39L1992.93,1185.25L2013.31,1082.39L1992.93,979.526Z" style="fill:white;"/>
        </g>
        <g transform="matrix(1.29563,0,0,2.33489,-591.848,-1456.83)">
            <path d="M1991.58,1064.8L2030.32,1086.3L1991.58,1107.8L1952.83,1086.3L1991.58,1064.8ZM1991.58,1079.09L1978.36,1086.3L1991.58,1093.51L2004.8,1086.3L1991.58,1079.09Z" style="fill:rgb(255,254,255);"/>
        </g>
        <g transform="matrix(2.18943,0,0,1.01811,-2374.9,-20.5125)">
            <path d="M1992.94,985.96L2036.91,1080.51L1992.94,1175.06L1948.98,1080.51L1992.94,985.96ZM1992.84,1018.19L1964.91,1079.35L1992.84,1140.5L2020.78,1079.35L1992.84,1018.19Z" style="fill:white;"/>
        </g>
    </g>
    <g transform="matrix(2.79954,0,0,2.79954,-109.228,-1866.55)">
        <g transform="matrix(0.728684,0,0,0.801189,-2122.2,-94.7569)">
            <rect x="2965.6" y="950.132" width="810.436" height="737.093" style="fill:rgb(71,46,191);"/>
        </g>
        <g transform="matrix(1.31635,0,0,1.1844,-4121.53,-582.809)">
            <path d="M3259.56,1385.57C3257.63,1385.74 3255.69,1385.82 3253.73,1385.82C3212.87,1385.82 3179.7,1348.93 3179.7,1303.48C3179.7,1258.03 3212.87,1221.13 3253.73,1221.13C3255.4,1221.13 3257.06,1221.19 3258.71,1221.32C3250.11,1207.87 3245.06,1191.43 3245.06,1173.68C3245.06,1128.24 3278.23,1091.34 3319.08,1091.34C3348.03,1091.34 3373.13,1109.87 3385.29,1136.84C3397.45,1109.87 3422.55,1091.34 3451.5,1091.34C3492.35,1091.34 3525.52,1128.24 3525.52,1173.68C3525.52,1191.4 3520.48,1207.81 3511.92,1221.25C3513.22,1221.17 3514.53,1221.13 3515.85,1221.13C3556.71,1221.13 3589.88,1258.03 3589.88,1303.48C3589.88,1348.93 3556.71,1385.82 3515.85,1385.82C3514.49,1385.82 3513.12,1385.78 3511.77,1385.7C3520.43,1399.18 3525.52,1415.68 3525.52,1433.49C3525.52,1478.93 3492.35,1515.83 3451.5,1515.83C3422.73,1515.83 3397.77,1497.53 3385.52,1470.83C3373.44,1498.08 3348.22,1516.85 3319.08,1516.85C3278.23,1516.85 3245.06,1479.95 3245.06,1434.5C3245.06,1416.18 3250.45,1399.26 3259.56,1385.57ZM3385.49,1177.31C3323.64,1177.31 3273.43,1234.25 3273.43,1304.38C3273.43,1374.52 3323.64,1431.46 3385.49,1431.46C3447.33,1431.46 3497.54,1374.52 3497.54,1304.38C3497.54,1234.25 3447.33,1177.31 3385.49,1177.31Z" style="fill:rgb(255,255,254);"/>
        </g>
        <g transform="matrix(1.40415,0,0,1.15212,-4427.19,-529.07)">
            <path d="M3390.84,1182.51C3440.26,1182.51 3480.38,1232.46 3480.38,1293.98C3480.38,1355.51 3440.26,1405.46 3390.84,1405.46C3341.42,1405.46 3301.3,1355.51 3301.3,1293.98C3301.3,1232.46 3341.42,1182.51 3390.84,1182.51ZM3390.41,1211.19C3353.27,1211.19 3323.12,1247.94 3323.12,1293.2C3323.12,1338.46 3353.27,1375.21 3390.41,1375.21C3427.55,1375.21 3457.7,1338.46 3457.7,1293.2C3457.7,1247.94 3427.55,1211.19 3390.41,1211.19Z" style="fill:rgb(255,255,254);"/>
        </g>
        <g transform="matrix(1,0,0,1,-3050.35,-319.865)">
            <g transform="matrix(1.18628,0,0,1.21371,-632.442,-277.531)">
                <ellipse cx="3386.71" cy="1283.92" rx="17.424" ry="17.03" style="fill:rgb(255,255,254);"/>
            </g>
            <g transform="matrix(0.677873,0,0,0.693546,1118.55,360.644)">
                <ellipse cx="3386.71" cy="1283.92" rx="17.424" ry="17.03" style="fill:rgb(255,255,254);"/>
            </g>
            <g transform="matrix(0.677873,0,0,0.693546,1130.36,390.314)">
                <ellipse cx="3386.71" cy="1283.92" rx="17.424" ry="17.03" style="fill:rgb(255,255,254);"/>
            </g>
            <g transform="matrix(0.677873,0,0,0.693546,1118.55,421.799)">
                <ellipse cx="3386.71" cy="1283.92" rx="17.424" ry="17.03" style="fill:rgb(255,255,254);"/>
            </g>
            <g transform="matrix(0.677873,0,0,0.693546,1089.38,434.227)">
                <ellipse cx="3386.71" cy="1283.92" rx="17.424" ry="17.03" style="fill:rgb(255,255,254);"/>
            </g>
            <g transform="matrix(0.677873,0,0,0.693546,1059.61,421.799)">
                <ellipse cx="3386.71" cy="1283.92" rx="17.424" ry="17.03" style="fill:rgb(255,255,254);"/>
            </g>
            <g transform="matrix(0.677873,0,0,0.693546,1046.93,390.314)">
                <ellipse cx="3386.71" cy="1283.92" rx="17.424" ry="17.03" style="fill:rgb(255,255,254);"/>
            </g>
            <g transform="matrix(0.677873,0,0,0.693546,1059.61,360.644)">
                <ellipse cx="3386.71" cy="1283.92" rx="17.424" ry="17.03" style="fill:rgb(255,255,254);"/>
            </g>
            <g transform="matrix(0.677873,0,0,0.693546,1089.38,348.093)">
                <ellipse cx="3386.71" cy="1283.92" rx="17.424" ry="17.03" style="fill:rgb(255,255,254);"/>
            </g>
        </g>
    </g>
    <g transform="matrix(2.79954,0,0,2.79954,1302.21,1411.81)">
        <g transform="matrix(1.2213e-16,-1.99453,2.058,1.26016e-16,-1012.74,5746.62)">
            <rect x="2245.23" y="840.012" width="296.086" height="286.953" style="fill:rgb(71,46,191);"/>
        </g>
        <g transform="matrix(1.26818e-16,-2.0711,2.0889,1.27908e-16,-1045.78,5918.54)">
            <g transform="matrix(1,0,0,1,0,0.240331)">
                <path d="M2341.09,843.581L2341.04,1125.46L2245.46,984.621L2341.09,843.581" style="fill:rgb(255,255,254);"/>
            </g>
            <g transform="matrix(1,0,0,1,94.5096,0.240331)">
                <path d="M2341.09,843.581L2341.04,1125.46L2245.46,984.621L2341.09,843.581" style="fill:rgb(255,255,254);"/>
            </g>
            <g transform="matrix(1,0,0,1,189.019,0.240331)">
                <path d="M2341.09,843.581L2341.04,1125.46L2245.46,984.621L2341.09,843.581" style="fill:rgb(255,255,254);"/>
            </g>
        </g>
    </g>
    <g transform="matrix(2.79954,0,0,2.79954,-2286.71,-1949.35)">
        <g transform="matrix(0.44636,0,0,0.55224,863.882,-322.757)">
            <rect x="1217.07" y="1844.87" width="1323.04" height="1069.37" style="fill:rgb(71,46,191);"/>
        </g>
        <g transform="matrix(1,0,0,1,-97.145,-1293.24)">
            <g transform="matrix(1.48851,-3.03567e-18,-2.98767e-18,1.44057,-882.953,-1017.36)">
                <path d="M1802.54,2265.88L1827.34,2291.26L1802.54,2316.64L1777.74,2291.26L1802.54,2265.88Z" style="fill:rgb(255,255,254);"/>
            </g>
            <g transform="matrix(1.68246,-3.43123e-18,-2.21615e-18,1.06857,-1159.94,-145.68)">
                <path d="M1615.08,2549.92L1702.14,2415.12L1610.74,2274.29L1701.22,2133.73L1613.65,1997.98L1643.86,1997.98L1732.86,2135.19L1642.07,2274.29L1733.79,2416.58L1647.3,2549.92L1615.08,2549.92Z" style="fill:rgb(255,255,254);"/>
            </g>
            <g transform="matrix(1.48851,-3.03567e-18,-2.98767e-18,1.44057,-882.953,-1310.68)">
                <path d="M1827.33,2291.24L1827.34,2291.26L1802.54,2316.64L1777.74,2291.26L1777.76,2291.24L1827.33,2291.24Z" style="fill:rgb(255,255,254);"/>
            </g>
            <g transform="matrix(3.49775,-7.13334e-18,-6.97122e-18,3.36134,-4506.6,-5418.35)">
                <path d="M1803.08,2249.1L1844.54,2291.54L1803.08,2333.97L1761.63,2291.54L1803.08,2249.1ZM1802.54,2265.88L1777.74,2291.26L1802.54,2316.64L1827.34,2291.26L1802.54,2265.88Z" style="fill:rgb(255,255,254);"/>
            </g>
            <g transform="matrix(3.49775,-7.13334e-18,-6.97122e-18,3.36134,-4506.6,-5712.57)">
                <path d="M1844.53,2291.53L1844.54,2291.54L1803.08,2333.97L1761.63,2291.54L1761.64,2291.53L1778,2291.53L1802.54,2316.64L1827.08,2291.53L1844.53,2291.53Z" style="fill:rgb(255,255,254);"/>
            </g>
            <g transform="matrix(-1.48851,-1.76218e-16,1.82395e-16,-1.44057,4483.24,5880.55)">
                <path d="M1827.33,2291.24L1827.34,2291.26L1802.54,2316.64L1777.74,2291.26L1777.76,2291.24L1827.33,2291.24Z" style="fill:rgb(255,255,254);"/>
            </g>
            <g transform="matrix(-3.49775,-4.14085e-16,4.25587e-16,-3.36134,8106.88,10282.4)">
                <path d="M1844.53,2291.53L1844.54,2291.54L1803.08,2333.97L1761.63,2291.54L1761.64,2291.53L1778,2291.53L1802.54,2316.64L1827.08,2291.53L1844.53,2291.53Z" style="fill:rgb(255,255,254);"/>
            </g>
            <g transform="matrix(9.41805e-17,-1.46372,1.46497,8.5222e-17,-1852.32,5070.23)">
                <path d="M1827.33,2291.24L1827.34,2291.26L1802.54,2316.64L1777.74,2291.26L1777.76,2291.24L1827.33,2291.24Z" style="fill:rgb(255,255,254);"/>
            </g>
            <g transform="matrix(2.21309e-16,-3.43951,3.41826,1.98851e-16,-6328.76,8633.53)">
                <path d="M1844.53,2291.53L1844.54,2291.54L1803.08,2333.97L1761.63,2291.54L1761.64,2291.53L1778,2291.53L1802.54,2316.64L1827.08,2291.53L1844.53,2291.53Z" style="fill:rgb(255,255,254);"/>
            </g>
            <g transform="matrix(9.41805e-17,-1.46372,1.46497,8.5222e-17,-1852.32,4772.58)">
                <path d="M1827.33,2291.24L1827.34,2291.26L1802.54,2316.64L1777.74,2291.26L1777.76,2291.24L1827.33,2291.24Z" style="fill:rgb(255,255,254);"/>
            </g>
            <g transform="matrix(2.21309e-16,-3.43951,3.41826,1.98851e-16,-6328.76,8335.88)">
                <path d="M1844.53,2291.53L1844.54,2291.54L1803.08,2333.97L1761.63,2291.54L1761.64,2291.53L1778,2291.53L1802.54,2316.64L1827.08,2291.53L1844.53,2291.53Z" style="fill:rgb(255,255,254);"/>
            </g>
            <g transform="matrix(8.81091e-17,1.46372,-1.46497,9.11973e-17,5451.42,-504.252)">
                <path d="M1827.33,2291.24L1827.34,2291.26L1802.54,2316.64L1777.74,2291.26L1777.76,2291.24L1827.33,2291.24Z" style="fill:rgb(255,255,254);"/>
            </g>
            <g transform="matrix(2.07042e-16,3.43951,-3.41826,2.12794e-16,9927.86,-4067.55)">
                <path d="M1844.53,2291.53L1844.54,2291.54L1803.08,2333.97L1761.63,2291.54L1761.64,2291.53L1778,2291.53L1802.54,2316.64L1827.08,2291.53L1844.53,2291.53Z" style="fill:rgb(255,255,254);"/>
            </g>
            <g transform="matrix(8.81091e-17,1.46372,-1.46497,9.11973e-17,5451.42,-206.598)">
                <path d="M1827.33,2291.24L1827.34,2291.26L1802.54,2316.64L1777.74,2291.26L1777.76,2291.24L1827.33,2291.24Z" style="fill:rgb(255,255,254);"/>
            </g>
            <g transform="matrix(2.07042e-16,3.43951,-3.41826,2.12794e-16,9927.86,-3769.9)">
                <path d="M1844.53,2291.53L1844.54,2291.54L1803.08,2333.97L1761.63,2291.54L1761.64,2291.53L1778,2291.53L1802.54,2316.64L1827.08,2291.53L1844.53,2291.53Z" style="fill:rgb(255,255,254);"/>
            </g>
            <g transform="matrix(-1.68246,2.06042e-16,-1.30862e-16,-1.06857,4759.05,4718.21)">
                <path d="M1645.92,2001.16L1732.86,2135.19L1642.07,2274.29L1733.79,2416.58L1645.7,2552.39L1613.48,2552.39L1702.14,2415.12L1610.74,2274.29L1701.22,2133.73L1615.7,2001.16L1645.92,2001.16Z" style="fill:rgb(255,255,254);"/>
            </g>
        </g>
    </g>
    <g transform="matrix(4.97359,0,0,4.96753,-7560.93,-10106.6)">
        <g transform="matrix(0.775325,0,0,0.775686,442.568,550.261)">
            <rect x="1818.73" y="2343.25" width="428.314" height="428.322" style="fill:rgb(71,46,191);"/>
        </g>
        <g>
            <g>
                <g transform="matrix(1,0,0,1,0.417239,0.99143)">
                    <path d="M2102.18,2366.66L2102.18,2440.79L2028.24,2516.68L2028.24,2439.83" style="fill:rgb(255,255,254);"/>
                </g>
                <g transform="matrix(1.33907e-16,1,1,-1.33907e-16,-331.778,422.153)">
                    <path d="M2102.18,2366.66L2102.18,2440.79L2028.24,2516.68L2028.24,2439.83" style="fill:rgb(255,255,254);"/>
                </g>
            </g>
            <g transform="matrix(1,0,0,1,0,-0.144007)">
                <g transform="matrix(6.12323e-17,-1,1,6.12323e-17,-331.778,4647.7)">
                    <path d="M2102.18,2366.66L2102.18,2440.79L2028.24,2516.68L2028.24,2439.83" style="fill:rgb(255,255,254);"/>
                </g>
                <g transform="matrix(1,-7.26747e-17,-7.26747e-17,-1,0.417239,5067.08)">
                    <path d="M2102.18,2366.66L2102.18,2440.79L2028.24,2516.68L2028.24,2439.83" style="fill:rgb(255,255,254);"/>
                </g>
            </g>
            <g>
                <g transform="matrix(1.11022e-16,1,-1,1.11022e-16,4369.31,422.153)">
                    <path d="M2102.18,2366.66L2102.18,2440.79L2028.24,2516.68L2028.24,2439.83" style="fill:rgb(255,255,254);"/>
                </g>
                <g transform="matrix(-1,1.95139e-16,1.95139e-16,1,4037.16,0.99143)">
                    <path d="M2102.18,2366.66L2102.18,2440.79L2028.24,2516.68L2028.24,2439.83" style="fill:rgb(255,255,254);"/>
                </g>
            </g>
            <g>
                <g transform="matrix(-1,-7.26747e-17,7.26747e-17,-1,4037.16,5067.14)">
                    <path d="M2102.18,2366.66L2102.18,2440.79L2028.24,2516.68L2028.24,2439.83" style="fill:rgb(254,254,254);"/>
                </g>
                <g transform="matrix(-2.56372e-16,-1,-1,2.56372e-16,4369.17,4647.7)">
                    <path d="M2102.18,2366.66L2102.18,2440.79L2028.24,2516.68L2028.24,2439.83" style="fill:rgb(255,255,254);"/>
                </g>
            </g>
        </g>
        <g transform="matrix(-1,-7.26747e-17,7.26747e-17,-1,4037.37,5066.93)">
            <path d="M2102.18,2366.66L2102.18,2440.79L2028.24,2516.68L2028.24,2439.83" style="fill:rgb(255,255,254);"/>
        </g>
        <g transform="matrix(1,0,0,1,-0.0983356,-0.788289)">
            <g transform="matrix(1.03494,0,0,1.1624,-70.129,-408.552)">
                <rect x="2008.11" y="2513.4" width="21.088" height="9.713" style="fill:rgb(255,255,254);"/>
            </g>
            <g transform="matrix(1.03494,0,0,1.1624,-70.129,-376.212)">
                <rect x="2008.11" y="2513.4" width="21.088" height="9.713" style="fill:rgb(255,255,254);"/>
            </g>
            <g transform="matrix(6.53218e-17,-1.06679,1.1624,7.11767e-17,-892.382,4688.45)">
                <rect x="2008.11" y="2513.4" width="21.088" height="9.713" style="fill:rgb(255,255,254);"/>
            </g>
            <g transform="matrix(6.53218e-17,-1.06679,1.1624,7.11767e-17,-924.495,4688.45)">
                <rect x="2008.11" y="2513.4" width="21.088" height="9.713" style="fill:rgb(255,255,254);"/>
            </g>
        </g>
        <g transform="matrix(1,0,0,1,1.64569,0)">
            <path d="M1976.93,2367.66L2058.82,2367.79L2017.94,2407.3L1976.93,2367.79" style="fill:rgb(255,255,254);"/>
        </g>
        <g transform="matrix(6.12323e-17,-1,1,6.12323e-17,-515.164,4551.13)">
            <path d="M2058.82,2367.79L2017.94,2407.3L1976.93,2367.79" style="fill:rgb(254,254,254);"/>
        </g>
        <g transform="matrix(-1,-1.22465e-16,1.22465e-16,-1,4037.39,5067.92)">
            <path d="M1976.93,2367.66L2058.82,2367.79L2017.94,2407.3L1976.93,2367.79" style="fill:rgb(255,255,254);"/>
        </g>
        <g transform="matrix(6.12323e-17,1,-1,6.12323e-17,4552.56,515.382)">
            <path d="M1976.93,2367.66L2058.82,2367.79L2017.94,2407.3L1976.93,2367.79" style="fill:rgb(255,255,254);"/>
        </g>
        <g transform="matrix(1,0,0,1,-0.450803,-0.548624)">
            <path d="M2185.35,2424.2L2185.35,2368.2L2129.46,2368.2L2185.35,2424.2" style="fill:rgb(255,255,254);"/>
        </g>
        <g transform="matrix(6.12323e-17,-1,1,6.12323e-17,-515.713,4553.01)">
            <path d="M2185.35,2424.2L2185.35,2368.2L2129.46,2368.2L2185.35,2424.2" style="fill:rgb(255,255,254);"/>
        </g>
        <g transform="matrix(-1,-1.22465e-16,1.22465e-16,-1,4037.85,5068.47)">
            <path d="M2185.35,2424.2L2185.35,2368.2L2129.46,2368.2L2185.35,2424.2" style="fill:rgb(255,255,254);"/>
        </g>
        <g transform="matrix(6.12323e-17,1,-1,6.12323e-17,4553.11,514.913)">
            <path d="M2185.35,2424.2L2185.35,2368.2L2129.46,2368.2L2185.35,2424.2" style="fill:rgb(255,255,254);"/>
        </g>
    </g>
</svg>
